<?xml version="1.0" standalone="no"?>
<!DOCTYPE svg PUBLIC "-//W3C//DTD SVG 20010904//EN"
 "http://www.w3.org/TR/2001/REC-SVG-20010904/DTD/svg10.dtd">
<svg version="1.0" xmlns="http://www.w3.org/2000/svg"
 width="260.000000pt" height="260.000000pt" viewBox="0 0 260.000000 260.000000"
 preserveAspectRatio="xMidYMid meet">
<metadata>
Created by potrace 1.11, written by Peter Selinger 2001-2013
</metadata>
<g transform="translate(0.000000,260.000000) scale(0.100000,-0.100000)"
fill="#000000" stroke="none">
<path d="M1945 2208 c-83 -15 -190 -73 -253 -136 -42 -42 -126 -167 -311 -462
-140 -223 -261 -416 -270 -429 -11 -18 1 -12 49 23 129 95 236 132 355 123 80
-6 143 -27 266 -85 110 -53 184 -72 279 -72 143 0 255 45 358 143 181 174 212
459 72 676 -107 168 -334 259 -545 219z m220 -232 c141 -67 210 -234 160 -385
-25 -77 -109 -161 -190 -191 -182 -67 -386 56 -386 234 0 65 15 103 81 201 99
147 218 197 335 141z"/>
<path d="M405 1721 c-96 -28 -165 -69 -236 -140 -100 -101 -149 -222 -149
-369 0 -193 104 -373 267 -460 47 -25 604 -254 908 -374 l50 -20 -81 84 c-91
93 -125 146 -150 233 -23 81 -14 220 21 335 70 232 28 426 -125 581 -70 70
-137 109 -235 134 -77 20 -195 18 -270 -4z m252 -232 c100 -38 182 -141 198
-251 9 -58 -16 -156 -53 -211 -35 -53 -80 -83 -143 -96 -63 -14 -112 -3 -222
48 -133 61 -198 141 -196 243 1 64 14 102 56 162 79 112 225 155 360 105z"/>
</g>
</svg>
